<?xml version="1.0" standalone="no"?>
<!DOCTYPE svg PUBLIC "-//W3C//DTD SVG 20010904//EN"
 "http://www.w3.org/TR/2001/REC-SVG-20010904/DTD/svg10.dtd">
<svg version="1.0" xmlns="http://www.w3.org/2000/svg"
 width="96.000000pt" height="96.000000pt" viewBox="0 0 96.000000 96.000000"
 preserveAspectRatio="xMidYMid meet">

<g transform="translate(0.000000,96.000000) scale(0.100000,-0.100000)"
fill="#000000" stroke="none">
<path d="M240 843 c-59 -30 -70 -66 -70 -235 l0 -147 -32 -52 c-63 -101 -38
-220 59 -280 54 -34 152 -34 206 0 62 38 92 92 92 166 0 52 -5 70 -32 114
l-33 52 0 145 c0 159 -10 200 -54 229 -39 26 -95 29 -136 8z m107 -65 c22 -21
23 -27 23 -188 0 -157 1 -168 21 -186 51 -46 63 -116 29 -172 -42 -68 -124
-91 -188 -52 -84 51 -95 159 -23 224 20 18 21 29 21 184 0 156 1 167 22 189
27 29 65 29 95 1z"/>
<path d="M277 614 c-4 -4 -7 -56 -7 -115 0 -99 -2 -108 -20 -114 -23 -7 -50
-53 -50 -84 0 -52 48 -101 100 -101 52 0 100 49 100 101 0 30 -27 77 -50 84
-17 6 -20 17 -22 118 -3 104 -4 112 -23 115 -12 2 -24 0 -28 -4z"/>
<path d="M592 793 c-64 -100 -68 -149 -18 -199 47 -47 86 -46 133 1 33 33 35
39 30 81 -6 54 -66 158 -95 162 -14 2 -28 -11 -50 -45z m72 -82 c21 -44 18
-69 -6 -85 -22 -13 -51 2 -56 29 -4 19 27 95 38 95 4 0 15 -17 24 -39z"/>
<path d="M692 412 c-81 -126 -90 -198 -33 -256 27 -26 39 -31 81 -31 42 0 54
5 81 31 42 42 48 95 20 160 -35 77 -81 144 -101 144 -10 0 -31 -20 -48 -48z
m81 -96 c15 -30 27 -64 27 -75 0 -27 -34 -61 -60 -61 -26 0 -60 34 -60 61 0
24 48 129 59 129 4 0 20 -24 34 -54z"/>
</g>
</svg>
